# xmcd
#
# Track frame offsets: 
#        150
#        29885
#        44698
#        56960
#        72913
#        84097
#        102174
#        119809
#        133469
#        147992
#        162567
#        176043
#        191547
#        203871
#        219823
#        238743
#        257637
#        272023
#
# Disc length: 3789 seconds
#
# Revision: 0
# Processed by: cddbd v1.5.2PL0 Copyright (c) Steve Scherf et al.
# Submitted via: ExactAudioCopyFreeDBPlugin 1.0
#
DISCID=220ecb12
DTITLE=Various Artist - Best of Country Vol 1
DYEAR=1900
DGENRE=Country
TTITLE0=Dan Fogelberg - Sutter's Mill
TTITLE1=Ronnie Milsap - (There's) N Getting Over Me
TTITLE2=Creedence Clearwater Revival - Have You Ever Seen the Rain
TTITLE3=Eagles - Take It Easy
TTITLE4=Linda Ronstadt - It's So Eas
TTITLE5=Chris Norman, Suzi Quatro - Stumblin' In
TTITLE6=Albert Hammond - It Never Rains In Southern Califonia
TTITLE7=Scott McKenzie - San Francisco
TTITLE8=John Denver - Take Me Home Country Road
TTITLE9=Glen Campbell - Rhinestone Cowboy
TTITLE10=Creedence Clearwater Revival - Cotton Fields
TTITLE11=Billy Ray Cyrus - Achy Breaky Heart
TTITLE12=Christie - Yellow River
TTITLE13=Tina Charles - Go
TTITLE14=Dolly Parton, Kenny Rogers - Island In The Stream
TTITLE15=Lobo - I'd Love You To Want Me
TTITLE16=Neil Young - Heart of Gold
TTITLE17=Hank Williams - Your Cheatin' Heart
EXTD=
EXTT0=
EXTT1=
EXTT2=
EXTT3=
EXTT4=
EXTT5=
EXTT6=
EXTT7=
EXTT8=
EXTT9=
EXTT10=
EXTT11=
EXTT12=
EXTT13=
EXTT14=
EXTT15=
EXTT16=
EXTT17=
PLAYORDER=
